<?xml version="1.0" encoding="UTF-8" standalone="no"?><!DOCTYPE svg PUBLIC "-//W3C//DTD SVG 1.1//EN" "http://www.w3.org/Graphics/SVG/1.1/DTD/svg11.dtd"><svg width="100%" height="100%" viewBox="0 0 3148 248" version="1.1" xmlns="http://www.w3.org/2000/svg" xmlns:xlink="http://www.w3.org/1999/xlink" xml:space="preserve" xmlns:serif="http://www.serif.com/" style="fill-rule:evenodd;clip-rule:evenodd;stroke-linecap:round;stroke-linejoin:round;stroke-miterlimit:1.5;"><g><path d="M923.125,50.625c0,-27.596 -22.404,-50 -50,-50l-266.667,0c-27.595,0 -50,22.404 -50,50l0,100c0,27.596 22.405,50 50,50l266.667,0c27.596,0 50,-22.404 50,-50l0,-100Z" style="fill:#0074a2;stroke:#787878;stroke-width:1.25px;"/><text x="617.12px" y="113.516px" style="font-family:'MarkOT-Medium', 'Mark OT', sans-serif;font-weight:500;font-size:37.5px;fill:#fff;">W<tspan x="656.12px " y="113.516px ">a</tspan>ter<tspan x="733.276px " y="113.516px ">s</tspan>tr<tspan x="784.614px " y="113.516px ">e</tspan>am</text></g><g><g><path d="M367.292,50.625c0,-27.596 -22.405,-50 -50,-50l-266.667,0c-27.596,0 -50,22.404 -50,50l0,100c0,27.596 22.404,50 50,50l266.667,0c27.595,0 50,-22.404 50,-50l0,-100Z" style="fill:#00afba;stroke:#787878;stroke-width:1.25px;"/><g transform="matrix(4.31674,0,0,4.31674,-889.362,-2024.28)"><text x="226.667px" y="486.77px" style="font-family:'MarkOT-Medium', 'Mark OT', sans-serif;font-weight:500;font-size:8.687px;fill:#2c2c00;">Lufthansa</text><text x="208.906px" y="495.457px" style="font-family:'MarkOT-Medium', 'Mark OT', sans-serif;font-weight:500;font-size:8.687px;fill:#2c2c00;">MQ<tspan x="224.335px " y="495.457px ">T</tspan>T Notiï¬c<tspan x="265.963px " y="495.457px ">a</tspan>tion</text><text x="233.126px" y="504.145px" style="font-family:'MarkOT-Medium', 'Mark OT', sans-serif;font-weight:500;font-size:8.687px;fill:#2c2c00;">Ser<tspan x="247.811px " y="504.145px ">v</tspan>ice</text></g></g></g><path d="M1046.8,110.247l12.579,-9.268l-12.42,-9.481l-0.159,18.749Z" style="fill:#788;"/><path d="M1049.38,100.894c-22.136,-0.188 -73.333,-0.623 -73.333,-0.623" style="fill:none;stroke:#788;stroke-width:4.17px;"/><path d="M490.962,109.894l12.579,-9.269l-12.42,-9.481l-0.159,18.75Z" style="fill:#788;"/><path d="M493.542,100.54c-22.136,-0.188 -73.333,-0.622 -73.333,-0.622" style="fill:none;stroke:#788;stroke-width:4.17px;"/><g><g><path d="M1478.96,50.625c0,-27.596 -22.404,-50 -50,-50l-266.666,0c-27.596,0 -50,22.404 -50,50l0,100c0,27.596 22.404,50 50,50l266.666,0c27.596,0 50,-22.404 50,-50l0,-100Z" style="fill:#38cced;stroke:#787878;stroke-width:1.25px;"/><g><path d="M1461.02,236.495l-0.001,0.032c-0.066,5.485 -16.559,9.931 -36.865,9.931c-20.347,0 -36.866,-4.464 -36.866,-9.963l0,-71.74l0,-0.032c0.066,-5.485 16.559,-9.931 36.866,-9.931c20.346,0 36.866,4.464 36.866,9.963l0,71.74Z" style="fill:#38cce0;stroke:#787878;stroke-width:1.25px;"/><ellipse cx="1424.16" cy="164.755" rx="36.866" ry="9.964" style="fill:#38cce0;stroke:#787878;stroke-width:1.04px;"/></g><text x="1241.48px" y="114.125px" style="font-family:'MarkOT-Medium', 'Mark OT', sans-serif;font-weight:500;font-size:37.5px;fill:#2c2c00;">K<tspan x="1267.06px " y="114.125px ">a</tspan>fk<tspan x="1325.88px " y="114.125px ">a</tspan></text></g></g><g><path d="M2034.79,50.625c0,-27.596 -22.405,-50 -50,-50l-266.667,0c-27.596,0 -50,22.404 -50,50l0,100c0,27.596 22.404,50 50,50l266.667,0c27.595,0 50,-22.404 50,-50l0,-100Z" style="fill:#38cced;stroke:#787878;stroke-width:1.25px;"/><g transform="matrix(2.67406,0,0,2.67406,1185.46,-1209.79)"><text x="228.407px" y="486.77px" style="font-family:'MarkOT-Medium', 'Mark OT', sans-serif;font-weight:500;font-size:14.024px;fill:#2c2c2c;">K<tspan x="237.972px " y="486.77px ">a</tspan>fk<tspan x="259.968px " y="486.77px ">a</tspan></text><text x="219.758px" y="500.794px" style="font-family:'MarkOT-Medium', 'Mark OT', sans-serif;font-weight:500;font-size:14.024px;fill:#2c2c2c;">C<tspan x="230.36px " y="500.794px ">o</tspan>nnect</text></g></g><g><path d="M2590.62,50.625c0,-27.596 -22.404,-50 -50,-50l-266.667,0c-27.595,0 -50,22.404 -50,50l0,100c0,27.596 22.405,50 50,50l266.667,0c27.596,0 50,-22.404 50,-50l0,-100Z" style="fill:#38cced;stroke:#787878;stroke-width:1.25px;"/><text x="2284.45px" y="113.537px" style="font-family:'MarkOT-Medium', 'Mark OT', sans-serif;font-weight:500;font-size:37.5px;fill:#2c2c2c;">Elasticsear<tspan x="2487.53px " y="113.537px ">c</tspan>h</text></g><g><path d="M3146.46,50.625c0,-27.596 -22.404,-50 -50,-50l-266.666,0c-27.596,0 -50,22.404 -50,50l0,100c0,27.596 22.404,50 50,50l266.666,0c27.596,0 50,-22.404 50,-50l0,-100Z" style="fill:#38cced;stroke:#787878;stroke-width:1.25px;"/><text x="2898.06px" y="118.104px" style="font-family:'MarkOT-Medium', 'Mark OT', sans-serif;font-weight:500;font-size:37.5px;fill:#2c2c2c;">Kibana</text></g><path d="M1602.63,110.954l12.579,-9.268l-12.42,-9.481l-0.159,18.749Z" style="fill:#788;"/><path d="M1605.21,101.601c-22.136,-0.188 -73.332,-0.622 -73.332,-0.622" style="fill:none;stroke:#788;stroke-width:4.17px;"/><path d="M2158.46,109.187l12.579,-9.269l-12.42,-9.481l-0.159,18.75Z" style="fill:#788;"/><path d="M2161.04,99.833c-22.136,-0.188 -73.333,-0.622 -73.333,-0.622" style="fill:none;stroke:#788;stroke-width:4.17px;"/><path d="M2714.3,108.48l12.579,-9.269l-12.42,-9.481l-0.159,18.75Z" style="fill:#788;"/><path d="M2716.88,99.126c-22.136,-0.188 -73.333,-0.622 -73.333,-0.622" style="fill:none;stroke:#788;stroke-width:4.17px;"/></svg>